<?xml version="1.0" encoding="UTF-8"?>
<svg xmlns="http://www.w3.org/2000/svg" viewBox="0 0 32 32">
    <defs>
        <linearGradient id="a" x1="16" x2="16" y1="2" y2="30" gradientUnits="userSpaceOnUse">
            <stop offset="0" stop-color="#25D366"/>
            <stop offset="1" stop-color="#128C7E"/>
        </linearGradient>
    </defs>
    <circle cx="16" cy="16" r="14" fill="url(#a)"/>
    <path fill="#fff" d="M16 7.2c-4.9 0-8.8 4-8.8 8.8 0 1.9.6 3.7 1.7 5.2l-1.1 3.3 3.4-1.1c1.5 1 3.2 1.5 4.9 1.5 4.9 0 8.8-4 8.8-8.8s-4-8.9-8.9-8.9zm4.4 12.4c-.2.6-1.2 1.2-1.7 1.2-.5.1-1 .1-1.6 0-1-.2-2.4-.9-3.6-2.2-1.1-1.1-1.9-2.6-2.1-3.2-.2-.6-.2-1.1 0-1.5.2-.4.5-.7.8-.9.3-.2.5-.2.7-.2.2 0 .4 0 .6.4.2.5.7 1.7.7 1.8.1.1.1.3 0 .4-.1.2-.2.3-.3.4-.2.2-.3.3-.4.5-.1.1-.2.3-.1.5.4.8 1.2 1.6 1.9 2.1.9.7 1.7 1 2 1.1.2.1.4.1.6-.1.2-.2.7-.8.9-1.1.2-.3.4-.2.6-.1.2.1 1.4.7 1.7.8.3.1.5.2.5.3.1.1.1.6-.1 1.2z"/>
</svg> 