<svg xmlns="http://www.w3.org/2000/svg" width="192" height="192" viewBox="0 0 192 192">
    <defs>
        <linearGradient id="a" x1="96" x2="96" y1="0" y2="192" gradientUnits="userSpaceOnUse">
            <stop offset="0" stop-color="#57d163"/>
            <stop offset="1" stop-color="#23b33a"/>
        </linearGradient>
    </defs>
    <circle cx="96" cy="96" r="96" fill="url(#a)"/>
    <path fill="#fff" d="M96 29c-37 0-67 30-67 67 0 14.7 4.7 28.3 12.7 39.3l-8.3 24.9 25.7-8.2c10.6 7 23.4 11.1 36.9 11.1 37 0 67-30 67-67s-30-67-67-67m38.7 95.8c-1.7 4.5-8.1 8.3-13.3 9.4-3.5.7-8.2 1.3-24-5.1-20.1-8.2-33-28.5-34.1-29.8-.9-1.3-7.8-10.4-7.8-19.9s4.8-14.1 6.6-16c1.7-1.9 3.5-2.4 4.8-2.4s2.4 0 3.5.1c1.1 0 2.6-.1 4.1 3.1 1.5 3.2 5 11.3 5.4 12.1.4.8.7 1.8.1 2.8-.6 1-1 1.6-1.9 2.5-.9.9-1.8 1.6-2.7 2.6-.8.8-1.8 1.8-.7 3.4.9 1.7 4.4 7 9.4 11.4 6.5 5.6 11.9 7.4 13.6 8.2 1.7.8 2.6.7 3.5-.4.9-1.1 4.2-4.9 5.2-6.6 1.1-1.7 2.2-1.4 3.7-.8 1.5.5 9.6 4.5 11.3 5.3 1.7.8 2.7 1.2 3.1 1.9.4.7.4 4-1.3 8.4"/>
</svg> 