<svg xmlns="http://www.w3.org/2000/svg" width="512" height="512" viewBox="0 0 512 512">
    <defs>
        <linearGradient id="a" x1="256" x2="256" y1="0" y2="512" gradientUnits="userSpaceOnUse">
            <stop offset="0" stop-color="#57d163"/>
            <stop offset="1" stop-color="#23b33a"/>
        </linearGradient>
    </defs>
    <circle cx="256" cy="256" r="256" fill="url(#a)"/>
    <path fill="#fff" d="M256 77.3c-98.7 0-178.7 80-178.7 178.7 0 39.2 12.5 75.5 33.9 104.8l-22.1 66.4 68.5-21.9c28.3 18.7 62.4 29.6 98.4 29.6 98.7 0 178.7-80 178.7-178.7S354.7 77.3 256 77.3m103.2 255.5c-4.5 12-21.6 22.1-35.5 25.1-9.3 1.9-21.9 3.5-64-13.6-53.6-21.9-88-76-90.9-79.5-2.4-3.5-20.8-27.7-20.8-53.1s12.8-37.6 17.6-42.7c4.5-5.1 9.3-6.4 12.8-6.4s6.4 0 9.3.3c2.9 0 6.9-.3 10.9 8.3 4 8.5 13.3 30.1 14.4 32.3 1.1 2.1 1.9 4.8.3 7.5-1.6 2.7-2.7 4.3-5.1 6.7-2.4 2.4-4.8 4.3-7.2 6.9-2.1 2.1-4.8 4.8-1.9 9.1 2.4 4.5 11.7 18.7 25.1 30.4 17.3 14.9 31.7 19.7 36.3 21.9 4.5 2.1 6.9 1.9 9.3-1.1 2.4-2.9 11.2-13.1 13.9-17.6 2.9-4.5 5.9-3.7 9.9-2.1 4 1.3 25.6 12 30.1 14.1 4.5 2.1 7.2 3.2 8.3 5.1 1.1 1.9 1.1 10.7-3.5 22.4"/>
</svg> 