<svg xmlns="http://www.w3.org/2000/svg" viewBox="0 0 175.216 175.552">
    <defs>
        <linearGradient id="a" x1="85.915" x2="86.535" y1="32.567" y2="137.092" gradientUnits="userSpaceOnUse">
            <stop offset="0" stop-color="#57d163"/>
            <stop offset="1" stop-color="#23b33a"/>
        </linearGradient>
    </defs>
    <path fill="url(#a)" d="M87.4 175.5c-48.3 0-87.4-39.3-87.4-87.8C0 39.3 39.1 0 87.4 0c48.3 0 87.4 39.3 87.4 87.8 0 48.4-39.1 87.7-87.4 87.7"/>
    <path fill="#fff" d="M87.4 23.3c-35.4 0-64.2 28.9-64.2 64.4 0 14.1 4.5 27.1 12.2 37.7l-8 23.9 24.6-7.9c10.2 6.7 22.4 10.6 35.4 10.6 35.4 0 64.2-28.9 64.2-64.4s-28.8-64.3-64.2-64.3m37.1 91.9c-1.6 4.3-7.8 8-12.8 9-3.4.7-7.9 1.2-23-4.9-19.3-7.9-31.7-27.3-32.7-28.6-.9-1.2-7.5-10-7.5-19.1s4.6-13.5 6.3-15.4c1.6-1.8 3.4-2.3 4.6-2.3 1.2 0 2.3 0 3.4.1 1.1 0 2.5-.1 3.9 3 1.4 3.1 4.8 10.8 5.2 11.6.4.8.7 1.7.1 2.7-.5 1-1 1.5-1.8 2.4-.9.9-1.7 1.5-2.6 2.5-.8.8-1.7 1.7-.7 3.3.9 1.6 4.2 6.7 9 10.9 6.2 5.4 11.4 7.1 13 7.9 1.6.8 2.5.7 3.4-.4.9-1.1 4-4.7 5-6.3 1.1-1.6 2.1-1.3 3.6-.8 1.4.5 9.2 4.3 10.8 5.1 1.6.8 2.6 1.2 3 1.8.4.7.4 3.8-1.2 8.1"/>
</svg> 